<?xml version="1.0" standalone="no"?><!DOCTYPE svg PUBLIC "-//W3C//DTD SVG 1.1//EN" "http://www.w3.org/Graphics/SVG/1.1/DTD/svg11.dtd"><svg t="1512742144762" class="icon" style="" viewBox="0 0 1198 1024" version="1.1" xmlns="http://www.w3.org/2000/svg" p-id="2037" xmlns:xlink="http://www.w3.org/1999/xlink" width="233.984375" height="200"><defs><style type="text/css"></style></defs><path d="M825.508312 713.073323c11.341343-15.301393 8.128348-36.899859-7.17635-48.241202l0.006612-0.003306a465.619823 465.619823 0 0 0-102.845589-57.731437 331.120285 331.120285 0 0 0 57.470299-45.960372c62.088152-62.088152 96.284071-144.640967 96.284071-232.446301 0-87.805334-34.192613-170.358149-96.284071-232.446301C710.871826 34.159557 628.319011-0.036361 540.513677-0.036361c-87.805334 0-170.358149 34.192613-232.446301 96.284071-62.088152 62.088152-96.284071 144.640967-96.28407 232.446301 0 87.805334 34.192613 170.358149 96.28407 232.446301a331.596284 331.596284 0 0 0 57.949604 46.274399l0.009916 0.006611a15.298087 15.298087 0 0 1-0.314027 0.128917h0.161972a465.378518 465.378518 0 0 0-136.006869 84.929505c-84.912978 76.15988-138.859559 180.235133-151.909872 293.046955-2.188274 18.92097 11.374399 36.033804 30.295369 38.222079 1.345359 0.155361 2.680801 0.231389 4.003021 0.231389 17.274806-0.003306 32.182838-12.954452 34.215752-30.530063 11.109955-96.065904 57.080244-184.720765 129.445352-249.628552 72.91383-65.400314 167.072432-101.420896 265.121666-101.420896 85.808782 0 167.492236 26.920402 236.221239 77.849016 15.308004 11.341343 36.903164 8.128348 48.247813-7.176349z m-296.719422-124.890304a260.556701 260.556701 0 0 1-58.514852-9.301819l-0.112389-0.02975c-42.426739-11.86362-81.316539-34.47689-113.317572-66.481228h-0.003305c-49.060978-49.060978-76.080547-114.292709-76.080547-183.676211s27.019569-134.615233 76.080547-183.676211c49.060978-49.060978 114.289404-76.080547 183.676211-76.080547 69.383502 0 134.615233 27.019569 183.676211 76.080547C773.254172 194.082084 800.273741 259.310509 800.273741 328.694011s-27.016263 134.615233-76.080547 183.676211c-32.030783 32.030783-70.956944 54.660581-113.433266 66.514284a262.791253 262.791253 0 0 1-81.971038 9.298513zM1037.595729 827.713114h-88.717666v-88.717666c0-19.046581-15.440226-34.483501-34.490113-34.483501-19.046581 0-34.486807 15.440226-34.486807 34.483501v88.717666H791.183477c-19.046581 0-34.486807 15.440226-34.486806 34.486807s15.440226 34.486807 34.486806 34.486807h88.717666v88.717666c0 19.046581 15.440226 34.486807 34.486807 34.486807s34.490112-15.440226 34.490113-34.486807v-88.717666h88.717666c19.046581 0 34.483501-15.440226 34.483501-34.486807 0-19.043276-15.440226-34.486807-34.483501-34.486807z" fill="#707070" p-id="2038"></path></svg>