<?xml version="1.0" standalone="no"?><!DOCTYPE svg PUBLIC "-//W3C//DTD SVG 1.1//EN" "http://www.w3.org/Graphics/SVG/1.1/DTD/svg11.dtd"><svg t="1512733728139" class="icon" style="" viewBox="0 0 1024 1024" version="1.1" xmlns="http://www.w3.org/2000/svg" p-id="956" xmlns:xlink="http://www.w3.org/1999/xlink" width="200" height="200"><defs><style type="text/css"></style></defs><path d="M969.216 1001.631744c0-0.23552-0.024576-0.464896-0.03072-0.69632-0.651264-124.207104-48.084992-238.440448-133.777408-321.890304-56.9344-55.443456-127.225856-94.142464-204.48256-113.625088 99.168256-45.012992 168.306688-144.971776 168.306688-260.780032C799.232 146.823168 670.840832 18.432 513.024 18.432S226.816 146.823168 226.816 304.64c0 115.808256 69.138432 215.76704 168.306688 260.780032-77.256704 19.484672-147.54816 58.181632-204.48256 113.625088-85.510144 83.273728-132.921344 197.197824-133.767168 321.101824-0.083968 0.731136-0.13312 1.472512-0.13312 2.22208 0 11.214848 9.699328 19.755008 20.916224 19.755008 10.682368 0 19.49696-7.364608 20.092928-18.604032l0.045056 0c0-234.678272 178.511872-411.648 415.232-411.648 236.271616 0 414.539776 176.304128 415.215616 410.3168-0.012288 0.274432-0.047104 0.546816-0.047104 0.8192 0 11.216896 10.692608 19.116032 21.907456 19.116032 10.582016 0 18.51392-8.2432 19.085312-18.604032l0.03072 0c0-0.362496-0.012288-0.722944-0.012288-1.083392C969.203712 1002.166272 969.224192 1001.90208 969.216 1001.631744zM267.776 304.64C267.776 169.41056 377.79456 59.392 513.024 59.392s245.248 110.01856 245.248 245.248S648.25344 549.888 513.024 549.888 267.776 439.86944 267.776 304.64z" p-id="957" fill="#707070"></path></svg>