<?xml version="1.0" standalone="no"?><!DOCTYPE svg PUBLIC "-//W3C//DTD SVG 1.1//EN" "http://www.w3.org/Graphics/SVG/1.1/DTD/svg11.dtd"><svg t="1512814535911" class="icon" style="" viewBox="0 0 1024 1024" version="1.1" xmlns="http://www.w3.org/2000/svg" p-id="1824" xmlns:xlink="http://www.w3.org/1999/xlink" width="200" height="200"><defs><style type="text/css"></style></defs><path d="M512 998.4a486.4 486.4 0 1 1 0-972.8 486.4 486.4 0 0 1 0 972.8z m0-51.2a435.2 435.2 0 1 0 0-870.4 435.2 435.2 0 0 0 0 870.4z" p-id="1825" fill="#707070"></path><path d="M512 537.6v-307.2a25.6 25.6 0 0 0-51.2 0v307.2a25.6 25.6 0 1 0 51.2 0z" p-id="1826" fill="#707070"></path><path d="M486.4 563.2h307.2a25.6 25.6 0 1 0 0-51.2h-307.2a25.6 25.6 0 1 0 0 51.2z" p-id="1827" fill="#707070"></path></svg>